<svg xmlns="http://www.w3.org/2000/svg" width="113" height="114" viewBox="0 0 113 114" fill="none">
  <g clip-path="url(#clip0_7_671)">
    <path d="M31.8538 47.5152C31.7266 51.5458 33.7253 53.3307 33.7748 54.4642C33.7512 54.6949 33.6732 54.9166 33.5473 55.1107C33.4213 55.3048 33.2511 55.4657 33.0508 55.58L30.7908 57.1744C30.4984 57.3811 30.1536 57.4996 29.7968 57.5161C29.7209 57.5125 28.3508 57.8418 26.1808 52.9587C24.8569 54.6243 23.1724 55.9625 21.2564 56.8709C19.3403 57.7792 17.2434 58.2337 15.1262 58.1994C12.2518 58.3578 4.46185 56.5552 4.86264 48.1967C4.58191 41.3847 10.8764 37.153 17.3862 37.5107C18.6398 37.5142 21.2 37.5765 25.6829 38.6264V35.8468C26.1579 31.1382 23.0874 27.4848 17.7711 28.0329C17.3474 28.0347 14.3458 27.9439 9.6775 29.832C8.378 30.4335 8.21204 30.3338 7.77946 30.3338C6.47113 30.3338 7.00964 26.5114 7.26036 26.0274C8.18025 24.8885 13.5919 22.7619 18.9029 22.7922C22.454 22.4757 25.9861 23.5803 28.7357 25.8672C29.8534 27.1273 30.7061 28.6026 31.2423 30.204C31.7785 31.8055 31.9871 33.4998 31.8555 35.1848L31.8538 47.5152ZM16.5952 53.279C22.3211 53.1954 24.7453 49.7253 25.298 47.8568C25.7323 46.0684 25.6599 44.9366 25.6599 42.9809C23.9526 42.5681 21.4948 42.1179 18.6751 42.1143C16.0002 41.9114 11.1147 43.1162 11.3054 47.855C11.0865 50.8429 13.2688 53.4428 16.5952 53.279ZM46.7733 57.3809C45.3855 57.509 44.7393 56.516 44.5345 55.5355L35.7417 26.2356C35.5704 25.7409 35.4574 25.2301 35.4027 24.7087C35.3702 24.4938 35.4238 24.2746 35.5516 24.0995C35.6794 23.9243 35.8709 23.8074 36.0842 23.7745C36.1266 23.7674 35.7081 23.7745 40.0127 23.7745C41.5629 23.6179 42.0679 24.8475 42.2286 25.6199L48.5354 50.6809L54.3902 25.6199C54.4838 25.0468 54.9093 23.6499 56.6502 23.7976H59.68C60.0631 23.7656 61.6416 23.7086 61.9188 25.643L67.8195 51.0244L74.3294 25.643C74.4141 25.2551 74.8096 23.6197 76.5682 23.7976H80.05C80.2001 23.7745 81.1359 23.6535 80.977 25.3245C80.9011 25.6537 81.579 23.4275 71.6633 55.5586C71.4603 56.5391 70.8123 57.5321 69.4245 57.404H66.1245C64.1929 57.6086 63.9157 55.685 63.8857 55.491L58.0309 31.0883L52.2432 55.4661C52.2149 55.6601 51.9377 57.5837 50.0044 57.3791H46.7733V57.3809ZM95.0596 58.3827C94.0214 58.3845 89.0706 58.3293 84.932 56.1957C84.5197 56.0198 84.1686 55.7244 83.9231 55.3471C83.6776 54.9698 83.5488 54.5275 83.553 54.0763V52.1633C83.553 50.6596 84.6477 50.9354 85.1121 51.1151C86.8848 51.8376 88.0218 52.3857 90.1988 52.8235C96.6698 54.1635 99.516 52.4142 100.213 52.0263C102.535 50.6365 102.719 47.4564 101.14 45.8068C99.29 44.2426 98.4072 44.1839 91.7596 42.0698C90.9404 41.8402 84.0439 39.6479 84.028 32.7522C83.9203 27.7268 88.4509 22.7548 96.3026 22.7957C98.5396 22.794 104.5 23.5307 106.114 25.5754C106.353 25.9473 106.471 26.3851 106.453 26.8282V28.6273C106.453 29.4174 106.167 29.8124 105.593 29.8124C104.232 29.6594 101.817 27.8247 96.9135 27.8994C95.697 27.8354 89.8704 28.0614 90.1317 32.3429C90.0558 35.7169 94.8301 36.9821 95.3756 37.1281C101.813 39.0802 103.965 39.4041 106.52 42.3919C109.547 46.3514 107.915 50.987 107.288 52.2576C103.92 58.929 95.2079 58.3863 95.0596 58.3827ZM102.157 77.0429C89.7927 86.2466 71.8434 91.1456 56.5178 91.1456C35.8389 91.2831 15.8569 83.6195 0.499785 69.6614C-0.653168 68.6132 0.363832 67.1772 1.76574 67.9762C18.8013 77.7977 38.0891 82.9582 57.7149 82.9456C72.3708 82.8663 86.8669 79.8698 100.371 74.128C102.451 73.2382 104.214 75.516 102.157 77.0429ZM107.311 71.1188C105.729 69.0688 96.8446 70.1614 92.8667 70.6401C91.6678 70.7771 91.4648 69.729 92.5506 68.9549C99.6255 63.942 111.245 65.3781 112.58 67.0633C113.913 68.7485 112.218 80.4827 105.595 86.0882C104.578 86.9548 103.605 86.4975 104.057 85.3586C105.547 81.5771 108.893 73.1706 107.311 71.1188Z" fill="white"/>
  </g>
  <defs>
    <clipPath id="clip0_7_671">
      <rect width="113" height="113.89" fill="white"/>
    </clipPath>
  </defs>
</svg>