<svg width="78" height="78" viewBox="0 0 78 78" fill="none" xmlns="http://www.w3.org/2000/svg">
<g clip-path="url(#clip0_116_229)">
<path d="M21.428 21.2354L16.3848 16.1898L16.4043 52.6341L16.4652 54.3355C16.4896 55.1399 16.6419 56.0417 16.8857 56.9802L56.8302 71.0689L66.824 66.6448L66.8325 66.6302L21.4255 21.2354H21.428Z" fill="url(#paint0_linear_116_229)"/>
<path d="M16.8869 56.9803H16.8906C16.8869 56.9656 16.8808 56.9486 16.8735 56.9315C16.8821 56.9498 16.8821 56.9681 16.8857 56.9803H16.8869ZM66.8143 66.645L56.8205 71.069L16.8821 56.9803C17.6438 59.9101 19.3342 63.2032 21.1501 64.9996L34.1786 77.9635L63.1702 78L66.8021 66.645H66.8143Z" fill="url(#paint1_linear_116_229)"/>
<path d="M16.5215 16.1912L0.990961 39.646C-0.298476 41.0232 0.345024 43.8653 2.42055 45.9591L11.3857 54.9974L17.0212 56.9839C16.7774 56.0479 16.6239 55.1558 16.6007 54.3393L16.5398 52.6379L16.5215 16.1936V16.1912Z" fill="#B3B3B3"/>
<path d="M57.1595 16.6604C56.2211 16.4227 55.3216 16.2728 54.5112 16.2497L52.7099 16.1838L16.385 16.1924L66.8315 66.6316L71.2629 56.6378L57.1619 16.6628L57.1595 16.6604Z" fill="#B3B3B3"/>
<path d="M57.113 16.6517C57.1289 16.6578 57.1459 16.6615 57.1594 16.6639V16.659C57.1435 16.6554 57.1289 16.6554 57.113 16.6493V16.6517ZM65.1751 20.9393C63.3409 19.0929 60.0929 17.4049 57.1594 16.6639L71.2603 56.6353L66.824 66.629L77.649 63.1702L77.6733 33.4912L65.1739 20.9381L65.1751 20.9393Z" fill="#B3B3B3"/>
<path d="M55.1825 11.0602L46.1637 2.09017C44.0602 0.0219547 41.218 -0.623983 39.853 0.663017L16.3994 16.1899L52.7243 16.1814L54.5256 16.2472C55.336 16.2715 56.2367 16.4202 57.1739 16.6579L55.1849 11.0577L55.1825 11.0602Z" fill="url(#paint2_linear_116_229)"/>
</g>
<defs>
<linearGradient id="paint0_linear_116_229" x1="41.6086" y1="16.1898" x2="41.6086" y2="71.0689" gradientUnits="userSpaceOnUse">
<stop stop-color="white"/>
<stop offset="1" stop-color="white" stop-opacity="0.33"/>
</linearGradient>
<linearGradient id="paint1_linear_116_229" x1="41.8439" y1="56.9315" x2="41.8439" y2="78" gradientUnits="userSpaceOnUse">
<stop stop-color="white"/>
<stop offset="1" stop-color="white" stop-opacity="0.33"/>
</linearGradient>
<linearGradient id="paint2_linear_116_229" x1="36.7867" y1="0.00012207" x2="36.7867" y2="16.6579" gradientUnits="userSpaceOnUse">
<stop stop-color="white"/>
<stop offset="1" stop-color="white" stop-opacity="0.33"/>
</linearGradient>
<clipPath id="clip0_116_229">
<rect width="78" height="78" fill="white"/>
</clipPath>
</defs>
</svg>
