<svg xmlns="http://www.w3.org/2000/svg" width="78" height="78" viewBox="0 0 78 78" fill="none">
  <g clip-path="url(#clip0_7_730)">
    <path d="M21.428 21.2355L16.3848 16.1899L16.4043 52.6342L16.4652 54.3355C16.4896 55.1399 16.6419 56.0418 16.8857 56.9802L56.8302 71.069L66.824 66.6449L66.8325 66.6303L21.4255 21.2355H21.428Z" fill="white"/>
    <path d="M16.8869 56.9802H16.8906C16.8869 56.9656 16.8808 56.9485 16.8735 56.9315C16.8821 56.9497 16.8821 56.968 16.8857 56.9802H16.8869ZM66.8143 66.6449L56.8205 71.069L16.8821 56.9802C17.6438 59.9101 19.3342 63.2031 21.1501 64.9996L34.1786 77.9634L63.1702 78L66.8021 66.6449H66.8143Z" fill="white"/>
    <path d="M16.5215 16.1911L0.990961 39.6459C-0.298476 41.0231 0.345024 43.8653 2.42055 45.9591L11.3857 54.9973L17.0212 56.9839C16.7774 56.0479 16.6239 55.1558 16.6007 54.3392L16.5398 52.6378L16.5215 16.1935V16.1911Z" fill="#B3B3B3"/>
    <path d="M57.1595 16.6603C56.2211 16.4227 55.3216 16.2727 54.5112 16.2496L52.7099 16.1838L16.385 16.1923L66.8315 66.6315L71.2629 56.6377L57.1619 16.6627L57.1595 16.6603Z" fill="#B3B3B3"/>
    <path d="M57.113 16.6518C57.1289 16.6579 57.1459 16.6615 57.1594 16.664V16.6591C57.1435 16.6554 57.1289 16.6554 57.113 16.6494V16.6518ZM65.1751 20.9394C63.3409 19.0929 60.0929 17.405 57.1594 16.664L71.2603 56.6353L66.824 66.6291L77.649 63.1703L77.6733 33.4913L65.1739 20.9381L65.1751 20.9394Z" fill="#B3B3B3"/>
    <path d="M55.1825 11.0602L46.1637 2.09016C44.0602 0.0219394 41.218 -0.623998 39.853 0.663002L16.3994 16.1899L52.7243 16.1813L54.5256 16.2472C55.336 16.2715 56.2367 16.4202 57.1739 16.6579L55.1849 11.0577L55.1825 11.0602Z" fill="white"/>
  </g>
  <defs>
    <clipPath id="clip0_7_730">
      <rect width="78" height="78" fill="white"/>
    </clipPath>
  </defs>
</svg>