<svg xmlns="http://www.w3.org/2000/svg" width="80" height="80" viewBox="0 0 80 80" fill="none">
  <path d="M53.2813 26.6719C56.8182 26.6719 60.2102 25.2668 62.7112 22.7659C65.2122 20.2649 66.6172 16.8728 66.6172 13.3359C66.6172 9.79903 65.2122 6.40698 62.7112 3.90601C60.2102 1.40503 56.8182 0 53.2813 0L26.6094 0C23.0745 0 19.6845 1.40421 17.185 3.90372C14.6855 6.40323 13.2813 9.79329 13.2813 13.3281C13.2813 16.863 14.6855 20.253 17.185 22.7525C19.6845 25.252 23.0745 26.6562 26.6094 26.6562C23.0725 26.6563 19.6804 28.0613 17.1794 30.5623C14.6785 33.0632 13.2734 36.4553 13.2734 39.9922C13.2734 43.5291 14.6785 46.9211 17.1794 49.4221C19.6804 51.9231 23.0725 53.3281 26.6094 53.3281C23.9718 53.3266 21.393 54.1072 19.199 55.5713C17.0051 57.0354 15.2946 59.1172 14.2838 61.5534C13.273 63.9896 13.0073 66.6709 13.5204 69.2581C14.0334 71.8453 15.3021 74.2223 17.1661 76.0885C19.0301 77.9546 21.4056 79.2261 23.9922 79.7422C26.5788 80.2583 29.2604 79.9958 31.6978 78.9878C34.1352 77.9799 36.219 76.2718 37.6857 74.0796C39.1523 71.8874 39.936 69.3095 39.9375 66.6719V26.6719H53.2813ZM53.2813 26.6719C50.6452 26.6719 48.0683 27.4536 45.8765 28.9181C43.6847 30.3826 41.9764 32.4641 40.9677 34.8995C39.9589 37.3349 39.695 40.0148 40.2092 42.6002C40.7235 45.1856 41.9929 47.5604 43.8568 49.4244C45.7208 51.2884 48.0957 52.5578 50.6811 53.072C53.2665 53.5863 55.9463 53.3224 58.3817 52.3136C60.8171 51.3048 62.8987 49.5965 64.3632 47.4047C65.8277 45.2129 66.6094 42.6361 66.6094 40C66.609 36.4653 65.2046 33.0755 62.7052 30.576C60.2058 28.0766 56.816 26.6723 53.2813 26.6719Z" fill="white"/>
</svg>