<svg xmlns="http://www.w3.org/2000/svg" width="80" height="80" viewBox="0 0 80 80" fill="none">
  <path d="M1.93506 55.375C1.93506 54.175 2.10256 53.1625 2.43506 52.3425C2.75596 51.5607 3.25505 50.8647 3.89256 50.31C4.52258 49.7914 5.25534 49.4123 6.04256 49.1975C6.86256 48.9675 7.74256 48.8525 8.69256 48.8525C9.5488 48.8471 10.4015 48.9633 11.2251 49.1975C12.0426 49.4275 12.7601 49.7975 13.3751 50.31C13.9901 50.8225 14.4751 51.5 14.8326 52.3425C15.1901 53.1625 15.3701 54.1725 15.3701 55.375C15.3701 56.525 15.1901 57.51 14.8326 58.33C14.5039 59.1075 14.006 59.8018 13.3751 60.3625C12.7626 60.9 12.0451 61.2825 11.2251 61.5125C10.406 61.7715 9.55152 61.9005 8.69256 61.895C7.74256 61.895 6.86256 61.77 6.04256 61.5125C5.24856 61.2956 4.51367 60.9026 3.89256 60.3625C3.27756 59.825 2.79256 59.1475 2.43506 58.33C2.10256 57.5125 1.93506 56.53 1.93506 55.375ZM23.5751 79.74C22.3251 79.74 21.0801 79.65 19.7751 79.4725C18.4701 79.295 17.3826 79.0625 16.5151 78.7825V69.575C17.3076 69.83 18.0501 70.01 18.7651 70.1125C19.5378 70.2462 20.3209 70.3106 21.1051 70.305C21.7451 70.305 22.3451 70.205 22.9051 69.9975C23.5033 69.8227 24.0293 69.4597 24.4051 68.9625C24.8401 68.4775 25.1851 67.8125 25.4401 66.9675C25.6951 66.15 25.8226 65.0875 25.8226 63.7825V17.97H37.5226V65.5075C37.5226 67.4775 37.2676 69.3175 36.7551 71.0075C36.3109 72.6754 35.483 74.2164 34.3376 75.5075C33.2376 76.8125 31.8051 77.8325 30.0376 78.5775C28.2701 79.3225 26.1251 79.69 23.5926 79.69M25.3426 6.83C25.3426 5.73 25.5101 4.8225 25.8426 4.08C26.1751 3.3375 26.6226 2.75 27.1851 2.315C27.7726 1.855 28.4501 1.535 29.2176 1.355C30.0101 1.175 30.8426 1.0875 31.7126 1.0875C32.5385 1.08184 33.3623 1.1716 34.1676 1.355C34.8977 1.51691 35.5805 1.84547 36.1626 2.315C36.7688 2.77275 37.2446 3.38127 37.5426 4.08C37.9001 4.7975 38.0801 5.705 38.0801 6.83C38.0801 7.905 37.9001 8.8125 37.5426 9.58C37.2101 10.3225 36.7501 10.9225 36.1626 11.38C35.5688 11.8307 34.8903 12.1572 34.1676 12.34C33.3624 12.5242 32.5386 12.6148 31.7126 12.61C30.8426 12.61 30.0126 12.5225 29.2176 12.34C28.4854 12.1515 27.7957 11.8257 27.1851 11.38C26.6226 10.92 26.1751 10.3175 25.8426 9.58C25.5101 8.8425 25.3426 7.93 25.3426 6.83ZM78.1426 48.125C78.1426 50.375 77.7326 52.345 76.8926 54.0325C76.0904 55.7032 74.8913 57.1521 73.4001 58.2525C71.8901 59.3775 70.0626 60.2225 67.9126 60.785C65.7626 61.3475 63.3626 61.63 60.7001 61.63C59.2926 61.63 57.9876 61.58 56.7876 61.48C55.6416 61.4097 54.5011 61.2686 53.3726 61.0575C52.2976 60.8525 51.2626 60.5975 50.2651 60.29C49.2323 59.9696 48.2204 59.5855 47.2351 59.14V49.475C48.3101 50.0125 49.4351 50.475 50.6101 50.9325L54.1776 52.0825L57.5926 52.8125C58.6197 52.9833 59.6588 53.0728 60.7001 53.08C61.7501 53.08 62.6451 52.9925 63.3851 52.8125C64.1276 52.6075 64.7276 52.3125 65.1851 52.0075C65.6701 51.65 66.0176 51.24 66.2201 50.7575C66.4484 50.2781 66.5663 49.7535 66.5651 49.2225C66.5651 48.685 66.4751 48.2125 66.2976 47.8025C66.1476 47.3675 65.7976 46.92 65.1851 46.46C64.5976 45.975 63.7276 45.46 62.5751 44.85L58.0101 42.6L53.1351 40.105C51.7801 39.26 50.6551 38.355 49.7601 37.305C48.888 36.2782 48.2233 35.0922 47.8026 33.8125C47.3676 32.4825 47.1526 30.9125 47.1526 29.0925C47.1526 27.0975 47.5351 25.3575 48.3026 23.875C49.0639 22.3729 50.1835 21.0815 51.5626 20.115C52.9701 19.115 54.6576 18.375 56.6276 17.865C58.6226 17.3525 60.8351 17.0975 63.2651 17.0975C65.8226 17.0975 68.2526 17.3925 70.5551 17.98C72.8576 18.5675 75.2226 19.45 77.6551 20.63L74.1251 28.9175C72.1801 27.9975 70.3251 27.2425 68.5626 26.655C66.8568 26.0768 65.0686 25.7788 63.2676 25.7725C61.6826 25.7725 60.5301 26.055 59.8176 26.6175C59.1276 27.18 58.7826 27.9475 58.7826 28.9175C58.7826 29.43 58.8726 29.9175 59.0501 30.3C59.2301 30.685 59.5876 31.0925 60.1251 31.55C60.6626 31.96 61.4176 32.42 62.3876 32.93L66.1876 34.73L71.0976 37.105C72.467 37.8099 73.7323 38.7008 74.8576 39.7525C75.8967 40.7365 76.72 41.9259 77.2751 43.245C77.8376 44.575 78.1201 46.1875 78.1201 48.08" fill="white"/>
</svg>