<svg width="80" height="80" viewBox="0 0 80 80" fill="none" xmlns="http://www.w3.org/2000/svg">
<g clip-path="url(#clip0_116_148)">
<path d="M40.45 0.0100204C38.7947 -0.0724017 37.1508 0.325829 35.7167 1.15669L8.50003 16.8667C7.17205 17.6379 6.07509 18.7509 5.32336 20.09L18.5134 27.3234C19.0154 26.5174 19.705 25.8449 20.5234 25.3634L37.0267 15.83C37.9186 15.3154 38.9303 15.0446 39.96 15.0446C40.9898 15.0446 42.0014 15.3154 42.8934 15.83L59.3967 25.3634C60.0781 25.7516 60.6744 26.2731 61.15 26.8967L74.22 19.3467C73.5032 18.3332 72.5752 17.4871 71.5 16.8667L44.3034 1.15669C43.1305 0.481718 41.8148 0.0933932 40.4634 0.0233537L40.45 0.0100204ZM39.9667 16.3834C39.171 16.3831 38.3892 16.5924 37.7 16.99L21.2 26.51C20.5881 26.867 20.0695 27.3639 19.6867 27.96L26.0867 31.4767C26.3668 31.1055 26.7181 30.7939 27.12 30.56L38.2534 24.1334C38.7863 23.8268 39.3903 23.6655 40.005 23.6655C40.6198 23.6655 41.2238 23.8268 41.7567 24.1334L52.8767 30.56C53.1721 30.7413 53.4393 30.9647 53.67 31.2234L53.73 31.19L53.7234 31.1833L59.98 27.5834C59.6348 27.1525 59.2133 26.7887 58.7367 26.51L42.2367 16.9767C41.5464 16.5833 40.7646 16.3786 39.97 16.3834H39.9667ZM74.74 20.2134L61.6734 27.7467C62.1102 28.5821 62.3389 29.5106 62.34 30.4534V49.5033C62.34 51.5933 61.2334 53.5367 59.4067 54.5967L42.9067 64.13C42.2482 64.5031 41.5238 64.7453 40.7734 64.8433V79.9233C42.0116 79.8347 43.2159 79.4788 44.3034 78.88L71.51 63.17C72.8153 62.4168 73.8995 61.3334 74.6537 60.0287C75.4079 58.7239 75.8055 57.2437 75.8067 55.7367V24.3234C75.7999 22.8919 75.4356 21.4848 74.7467 20.23L74.74 20.2134ZM4.95003 21.0067C4.48138 22.0456 4.22416 23.1674 4.19336 24.3067V55.74C4.19336 58.8 5.83003 61.63 8.50336 63.17L35.71 78.88C36.956 79.5891 38.36 79.9742 39.7934 80V64.8967C38.817 64.8706 37.8627 64.6014 37.0167 64.1133L20.52 54.6C19.6293 54.0815 18.8905 53.3381 18.3774 52.4442C17.8644 51.5503 17.5951 50.5373 17.5967 49.5067V30.4534C17.5939 29.6809 17.7422 28.9155 18.0334 28.2L4.95003 21.0067ZM60.5167 28.4167L54.2167 32.0567C54.4692 32.5297 54.6106 33.0541 54.63 33.59V46.4434C54.63 47.7034 53.9634 48.8434 52.8767 49.4667L41.7567 55.9C41.4488 56.068 41.1173 56.1882 40.7734 56.2567V63.49C41.28 63.4 41.7867 63.23 42.24 62.9667L58.7367 53.4367C59.4269 53.0382 59.9999 52.4647 60.3979 51.7742C60.7958 51.0836 61.0047 50.3004 61.0034 49.5033V30.4534C60.9992 29.75 60.8314 29.0573 60.5134 28.43L60.5167 28.4167ZM19.2267 28.85C19.0329 29.3624 18.9335 29.9056 18.9334 30.4534V49.5033C18.9321 50.3004 19.1409 51.0836 19.5389 51.7742C19.9368 52.4647 20.5098 53.0382 21.2 53.4367L37.7 62.97C38.3467 63.3434 39.0734 63.5234 39.79 63.56V56.3133C39.2543 56.2954 38.7298 56.1552 38.2567 55.9034L27.1334 49.4767C26.5985 49.1718 26.1531 48.7317 25.8419 48.2005C25.5307 47.6693 25.3645 47.0657 25.36 46.45V33.6067C25.3613 33.1717 25.4485 32.7412 25.6167 32.34L25.5034 32.2967L19.2267 28.85Z" fill="url(#paint0_linear_116_148)"/>
</g>
<defs>
<linearGradient id="paint0_linear_116_148" x1="40" y1="-0.000610352" x2="40" y2="80" gradientUnits="userSpaceOnUse">
<stop stop-color="white"/>
<stop offset="1" stop-color="white" stop-opacity="0.29"/>
</linearGradient>
<clipPath id="clip0_116_148">
<rect width="80" height="80" fill="white"/>
</clipPath>
</defs>
</svg>
