<svg xmlns="http://www.w3.org/2000/svg" width="80" height="80" viewBox="0 0 80 80" fill="none">
  <g clip-path="url(#clip0_7_677)">
    <path d="M78.8125 18.0984C78.8002 18.0621 78.7856 18.0266 78.7687 17.9922C78.7463 17.925 78.7187 17.8596 78.6859 17.7969C78.6606 17.7578 78.6324 17.7207 78.6015 17.6859C78.5672 17.6346 78.5296 17.5856 78.489 17.539C78.4531 17.5047 78.4078 17.4765 78.3687 17.4453C78.3241 17.4069 78.2772 17.3714 78.2281 17.339L63.1875 8.67966C62.9974 8.56995 62.7819 8.51219 62.5625 8.51219C62.343 8.51219 62.1275 8.56995 61.9375 8.67966L46.8937 17.3437C46.8454 17.3764 46.7995 17.4125 46.7562 17.4515C46.7136 17.4802 46.6729 17.5115 46.6343 17.5453C46.5934 17.591 46.5558 17.6395 46.5218 17.6906C46.4953 17.7281 46.4609 17.7609 46.4375 17.8015C46.4059 17.8647 46.3787 17.9299 46.3562 17.9969C46.3437 18.0328 46.3234 18.0656 46.3125 18.1031C46.2838 18.2091 46.2691 18.3183 46.2687 18.4281V34.8718L33.7343 42.089V9.91248C33.7346 9.80214 33.7199 9.69228 33.6906 9.58591C33.6812 9.54841 33.6593 9.5156 33.6468 9.47966C33.625 9.413 33.5978 9.34821 33.5656 9.28591C33.5437 9.24529 33.5078 9.21248 33.4812 9.17341C33.4468 9.12213 33.4093 9.07307 33.3687 9.02654C33.3297 8.99319 33.2891 8.9619 33.2468 8.93279C33.203 8.8948 33.1571 8.85932 33.1093 8.82654L18.064 0.167163C17.874 0.0574527 17.6584 -0.000305176 17.439 -0.000305176C17.2196 -0.000305176 17.004 0.0574527 16.814 0.167163L1.77183 8.82654C1.72299 8.85847 1.67699 8.89454 1.63433 8.93435C1.59124 8.96295 1.55001 8.99427 1.51089 9.0281C1.47048 9.07382 1.43341 9.12238 1.39996 9.17341C1.37183 9.21248 1.33746 9.24529 1.31402 9.28591C1.282 9.34811 1.25534 9.41293 1.23433 9.47966C1.21727 9.51368 1.20214 9.54863 1.18902 9.58435C1.16027 9.69137 1.14557 9.80167 1.14527 9.91248V61.4281C1.14467 61.6481 1.20214 61.8644 1.31188 62.055C1.42162 62.2457 1.57974 62.404 1.77027 62.514L31.8484 79.8328C31.9153 79.8665 31.9848 79.8947 32.0562 79.9172C32.089 79.9297 32.1203 79.9484 32.1546 79.9578C32.3645 80.014 32.5854 80.014 32.7953 79.9578C32.8265 79.95 32.8531 79.9328 32.8812 79.9234C32.9566 79.8997 33.0298 79.8694 33.1 79.8328L63.1875 62.514C63.378 62.404 63.5361 62.2457 63.6458 62.055C63.7556 61.8644 63.8131 61.6481 63.8125 61.4281V44.9812L78.225 36.6828C78.4166 36.5721 78.5755 36.4126 78.6853 36.2204C78.7951 36.0282 78.8519 35.8104 78.85 35.589V18.425C78.8508 18.315 78.8382 18.2053 78.8125 18.0984ZM17.4375 2.69998L29.9671 9.91091L17.4359 17.1265L4.90777 9.91248L17.4375 2.69998ZM31.2265 12.075V43.5312L23.9562 47.7172L18.6921 50.7484V19.2969L25.9625 15.1109L31.2265 12.075ZM31.2265 76.5719L3.65152 60.7031V12.0812L8.91558 15.1094L16.1843 19.2969V52.9187C16.1875 52.966 16.1938 53.0129 16.2031 53.0593C16.2068 53.1213 16.2152 53.183 16.2281 53.2437C16.244 53.2922 16.2638 53.3392 16.2875 53.3844C16.3049 53.4382 16.3268 53.4905 16.3531 53.5406C16.382 53.583 16.4133 53.6237 16.4468 53.6625C16.4781 53.7086 16.5126 53.7524 16.55 53.7937C16.5859 53.8281 16.6312 53.8531 16.6703 53.8843C16.7129 53.9214 16.7578 53.9559 16.8046 53.9875L31.2093 62.1406L31.2265 76.5719ZM32.4765 59.9828L19.9671 52.9015L33.1062 45.3375L47.5218 37.039L60.0421 44.2468L50.8546 49.4906L32.4765 59.9828ZM61.3078 60.6968L33.7312 76.5797V62.1562L54.1562 50.5L61.3078 46.414V60.6968ZM61.3078 42.0828L56.0437 39.0625L48.7734 34.8765V20.5922L54.0375 23.6234L61.3078 27.8125V42.0828ZM62.5578 25.6328L50.0265 18.4187L62.5578 11.2062L75.0859 18.4172L62.5578 25.6328ZM63.8078 42.0828V27.8125L71.0937 23.6234L76.3562 20.5922V34.8718L63.8078 42.0828Z" fill="white"/>
  </g>
  <defs>
    <clipPath id="clip0_7_677">
      <rect width="80" height="80" fill="white"/>
    </clipPath>
  </defs>
</svg>