<svg width="80" height="80" viewBox="0 0 80 80" fill="none" xmlns="http://www.w3.org/2000/svg">
<g clip-path="url(#clip0_116_246)">
<path d="M39.7499 0.217529L41.8849 4.22753C42.3649 4.96753 42.8849 5.62253 43.4974 6.23253C45.2849 8.02003 46.9824 9.89253 48.5074 11.8975C52.1249 16.6475 54.5649 21.9225 56.3074 27.6275C57.3524 31.1125 57.9199 34.6875 57.9624 38.3025C58.1374 49.11 54.4324 58.39 46.9624 66.1025C45.7424 67.3225 44.4374 68.4525 43.0374 69.4575C42.2974 69.4575 41.9474 68.89 41.6424 68.3675C41.0749 67.41 40.7274 66.3175 40.5524 65.23C40.2899 63.9225 40.1174 62.615 40.2024 61.265V60.655C40.1424 60.525 39.4899 0.525029 39.7499 0.217529Z" fill="#B3B3B3"/>
<path d="M39.7499 0.085031C39.6624 -0.089969 39.5749 0.042531 39.4874 0.127531C39.5299 1.00253 39.2249 1.78253 38.7474 2.52753C38.2224 3.26753 37.5274 3.83503 36.8299 4.44503C32.9549 7.80003 29.9049 11.8525 27.4624 16.385C24.2124 22.485 22.5374 29.0225 22.0624 35.905C21.8449 38.3875 22.8474 47.1475 23.6299 49.675C25.7649 56.385 29.5999 62.0075 34.5674 66.8875C35.7874 68.0625 37.0924 69.1525 38.4424 70.2C38.8349 70.2 38.8774 69.85 38.9674 69.59C39.1395 69.0337 39.2707 68.4655 39.3599 67.89L40.2349 61.355L39.7499 0.085031Z" fill="url(#paint0_linear_116_246)"/>
<path d="M41.8849 72.1124C41.9724 71.1124 42.4524 70.2824 42.9749 69.4549C42.4499 69.2374 42.0599 68.8049 41.7549 68.3224C41.4924 67.8874 41.2749 67.3649 41.1049 66.8849C40.4949 65.0549 40.3649 63.1349 40.1899 61.2649V60.1324C39.9724 60.3074 39.9274 61.7874 39.9274 62.0074C39.8002 63.9839 39.5379 65.9493 39.1424 67.8899C39.0124 68.6749 38.9249 69.4574 38.4424 70.1549C38.4424 70.2424 38.4424 70.3299 38.4849 70.4599C39.2699 72.7699 39.4849 75.1224 39.6174 77.5199V78.3949C39.6174 79.4399 39.5749 79.2199 40.4424 79.5699C40.7924 79.6999 41.1824 79.7449 41.5324 80.0049C41.7949 80.0049 41.8374 79.7874 41.8374 79.6124L41.7074 78.1749V74.1649C41.6649 73.4649 41.7949 72.7699 41.8824 72.1149L41.8849 72.1124Z" fill="url(#paint1_linear_116_246)"/>
</g>
<defs>
<linearGradient id="paint0_linear_116_246" x1="31.1336" y1="-0.000976563" x2="31.1336" y2="70.2" gradientUnits="userSpaceOnUse">
<stop stop-color="white"/>
<stop offset="1" stop-color="white" stop-opacity="0.22"/>
</linearGradient>
<linearGradient id="paint1_linear_116_246" x1="40.7086" y1="60.1324" x2="40.7086" y2="80.0049" gradientUnits="userSpaceOnUse">
<stop stop-color="#C2BFBF"/>
<stop offset="1" stop-color="#C2BFBF" stop-opacity="0"/>
</linearGradient>
<clipPath id="clip0_116_246">
<rect width="80" height="80" fill="white"/>
</clipPath>
</defs>
</svg>
