<svg xmlns="http://www.w3.org/2000/svg" width="80" height="80" viewBox="0 0 80 80" fill="none">
  <g clip-path="url(#clip0_7_738)">
    <path d="M39.7499 0.217499L41.8849 4.2275C42.3649 4.9675 42.8849 5.6225 43.4974 6.2325C45.2849 8.02 46.9824 9.8925 48.5074 11.8975C52.1249 16.6475 54.5649 21.9225 56.3074 27.6275C57.3524 31.1125 57.9199 34.6875 57.9624 38.3025C58.1374 49.11 54.4324 58.39 46.9624 66.1025C45.7424 67.3225 44.4374 68.4525 43.0374 69.4575C42.2974 69.4575 41.9474 68.89 41.6424 68.3675C41.0749 67.41 40.7274 66.3175 40.5524 65.23C40.2899 63.9225 40.1174 62.615 40.2024 61.265V60.655C40.1424 60.525 39.4899 0.524999 39.7499 0.217499Z" fill="#B3B3B3"/>
    <path d="M39.7499 0.0850004C39.6624 -0.0899996 39.5749 0.0425004 39.4874 0.1275C39.5299 1.0025 39.2249 1.7825 38.7474 2.5275C38.2224 3.2675 37.5274 3.835 36.8299 4.445C32.9549 7.8 29.9049 11.8525 27.4624 16.385C24.2124 22.485 22.5374 29.0225 22.0624 35.905C21.8449 38.3875 22.8474 47.1475 23.6299 49.675C25.7649 56.385 29.5999 62.0075 34.5674 66.8875C35.7874 68.0625 37.0924 69.1525 38.4424 70.2C38.8349 70.2 38.8774 69.85 38.9674 69.59C39.1395 69.0337 39.2707 68.4655 39.3599 67.89L40.2349 61.355L39.7499 0.0850004Z" fill="white"/>
    <path d="M41.8849 72.1125C41.9724 71.1125 42.4524 70.2825 42.9749 69.455C42.4499 69.2375 42.0599 68.805 41.7549 68.3225C41.4924 67.8875 41.2749 67.365 41.1049 66.885C40.4949 65.055 40.3649 63.135 40.1899 61.265V60.1325C39.9724 60.3075 39.9274 61.7875 39.9274 62.0075C39.8002 63.9839 39.5379 65.9494 39.1424 67.89C39.0124 68.675 38.9249 69.4575 38.4424 70.155C38.4424 70.2425 38.4424 70.33 38.4849 70.46C39.2699 72.77 39.4849 75.1225 39.6174 77.52V78.395C39.6174 79.44 39.5749 79.22 40.4424 79.57C40.7924 79.7 41.1824 79.745 41.5324 80.005C41.7949 80.005 41.8374 79.7875 41.8374 79.6125L41.7074 78.175V74.165C41.6649 73.465 41.7949 72.77 41.8824 72.115L41.8849 72.1125Z" fill="#C2BFBF"/>
  </g>
  <defs>
    <clipPath id="clip0_7_738">
      <rect width="80" height="80" fill="white"/>
    </clipPath>
  </defs>
</svg>