<svg xmlns="http://www.w3.org/2000/svg" width="113" height="113" viewBox="0 0 113 113" fill="none">
  <path d="M55.8467 91.1063C55.4759 91.1063 55.1052 91.0003 54.7697 90.8238L51.3797 88.8109C50.8677 88.5284 51.1148 88.4225 51.2914 88.3695C51.9623 88.14 52.1036 88.087 52.8275 87.6633C52.8981 87.628 53.0041 87.6456 53.0747 87.6809L55.6878 89.2347C55.7761 89.2877 55.9173 89.2877 56.0056 89.2347L66.2109 83.3375C66.2992 83.2845 66.3698 83.1786 66.3698 83.055V71.2783C66.3698 71.1547 66.3169 71.0487 66.2109 70.9958L56.0056 65.1162C55.9173 65.0633 55.7938 65.0633 55.6878 65.1162L45.4825 70.9958C45.3766 71.0487 45.3236 71.1723 45.3236 71.2783V83.055C45.3236 83.1609 45.3942 83.2669 45.4825 83.3198L48.2722 84.9266C49.7906 85.6858 50.7264 84.7853 50.7264 83.9025V72.267C50.7264 72.1081 50.85 71.9669 51.0266 71.9669H52.3155C52.4744 71.9669 52.6156 72.0905 52.6156 72.267V83.9025C52.6156 85.933 51.5209 87.0806 49.5964 87.0806C49.0137 87.0806 48.537 87.0806 47.2481 86.445L44.5644 84.9089C43.9111 84.5205 43.4873 83.8142 43.4873 83.055V71.2783C43.4873 70.5191 43.8934 69.7952 44.5644 69.4244L54.7697 63.5272C55.423 63.1564 56.2705 63.1564 56.9061 63.5272L67.1114 69.4244C67.7647 69.8128 68.1884 70.5191 68.1884 71.2783V83.055C68.1884 83.8142 67.7823 84.5381 67.1114 84.9089L56.9061 90.8061C56.6059 91.0003 56.2352 91.1063 55.8467 91.1063ZM64.0922 79.4884C64.0922 77.2814 62.6091 76.6988 59.4662 76.275C56.2881 75.8513 55.9703 75.6394 55.9703 74.8978C55.9703 74.2798 56.2352 73.4677 58.5834 73.4677C60.6845 73.4677 61.4614 73.9267 61.7792 75.3392C61.8145 75.4805 61.9205 75.5688 62.0617 75.5688H63.3859C63.4742 75.5688 63.5448 75.5334 63.5978 75.4805C63.6508 75.4098 63.6861 75.3392 63.6684 75.2509C63.4566 72.8144 61.8498 71.6844 58.5834 71.6844C55.6702 71.6844 53.9398 72.9203 53.9398 74.9684C53.9398 77.2108 55.6702 77.8111 58.4598 78.0936C61.7969 78.4291 62.0617 78.9058 62.0617 79.5591C62.0617 80.7067 61.1436 81.1834 58.9895 81.1834C56.2881 81.1834 55.6878 80.5125 55.4936 79.1706C55.4759 79.0294 55.3523 78.9234 55.1934 78.9234H53.8692C53.7103 78.9234 53.5691 79.047 53.5691 79.2236C53.5691 80.9363 54.5048 82.9844 58.9719 82.9844C62.2383 82.9844 64.0922 81.7131 64.0922 79.4884ZM73.7148 70.6427C73.7148 71.7197 72.832 72.6025 71.755 72.6025C70.678 72.6025 69.7952 71.7197 69.7952 70.6427C69.7952 69.5303 70.7133 68.6828 71.755 68.6828C72.8144 68.6652 73.7148 69.5303 73.7148 70.6427ZM73.397 70.6427C73.397 69.7245 72.6555 69.0006 71.7373 69.0006C70.8369 69.0006 70.0953 69.7245 70.0953 70.6427C70.0953 71.5608 70.8369 72.3023 71.7373 72.3023C72.6555 72.2847 73.397 71.5431 73.397 70.6427ZM72.6025 71.7373H72.1434C72.1258 71.6314 72.0552 71.0664 72.0552 71.0487C72.0198 70.9252 71.9845 70.8545 71.8256 70.8545H71.4372V71.7373H71.0134V69.5303H71.7727C72.0375 69.5303 72.5495 69.5303 72.5495 70.113C72.5495 70.5191 72.2847 70.6073 72.1258 70.6603C72.4259 70.678 72.4436 70.8722 72.4966 71.1547C72.5142 71.3313 72.5495 71.6314 72.6025 71.7373ZM72.1081 70.1836C72.1081 69.8834 71.8963 69.8834 71.7903 69.8834H71.4372V70.5014H71.7727C72.0552 70.5014 72.1081 70.3072 72.1081 70.1836ZM24.242 45.0234C24.242 44.5467 23.9948 44.123 23.5888 43.8934L12.7655 37.6608C12.5889 37.5548 12.377 37.5019 12.1652 37.4842H12.0592C11.8473 37.4842 11.6531 37.5548 11.4589 37.6608L0.653281 43.8934C0.247188 44.123 0 44.5644 0 45.0234L0.0176562 61.7969C0.0176562 62.0264 0.14125 62.2383 0.335469 62.3619C0.529688 62.4855 0.776875 62.4855 0.98875 62.3619L7.41563 58.6717C7.82172 58.4245 8.06891 58.0008 8.06891 57.5417V49.7023C8.06891 49.2433 8.31609 48.8019 8.72219 48.5723L11.4589 47.0009C11.6708 46.8773 11.8827 46.8244 12.1122 46.8244C12.3417 46.8244 12.5713 46.8773 12.7655 47.0009L15.5022 48.5723C15.9083 48.8019 16.1555 49.2433 16.1555 49.7023V57.5417C16.1555 58.0008 16.4027 58.4422 16.8088 58.6717L23.2356 62.3619C23.4298 62.4855 23.6947 62.4855 23.8889 62.3619C24.0831 62.2559 24.2067 62.0264 24.2067 61.7969L24.242 45.0234ZM83.4258 26.7139V57.8595C83.4258 58.3186 83.1786 58.76 82.7725 58.9895L71.9492 65.2398C71.5431 65.4694 71.0488 65.4694 70.6427 65.2398L59.8194 58.9895C59.4133 58.76 59.1661 58.3186 59.1661 57.8595V45.3589C59.1661 44.8998 59.4133 44.4584 59.8194 44.2289L70.6427 37.9786C71.0488 37.7491 71.5431 37.7491 71.9492 37.9786L74.6506 39.5323C74.9508 39.7089 75.3392 39.4794 75.3392 39.1439V22.547C75.3392 22.0527 75.8689 21.7348 76.3103 21.982L82.7548 25.5839C83.1609 25.7958 83.4258 26.2372 83.4258 26.7139ZM75.3039 49.4728C75.3039 49.3492 75.2333 49.2433 75.145 49.1903L71.4372 47.0362C71.3313 46.9833 71.2077 46.9833 71.1017 47.0362L67.3939 49.1903C67.288 49.2433 67.235 49.3492 67.235 49.4728V53.7633C67.235 53.8869 67.3056 53.9928 67.3939 54.0458L71.1017 56.1822C71.2077 56.2352 71.3313 56.2352 71.4195 56.1822L75.1273 54.0458C75.2333 53.9928 75.2862 53.8869 75.2862 53.7633V49.4728H75.3039ZM112.347 49.3492C112.753 49.1197 113 48.6783 113 48.2192V45.2C113 44.7409 112.753 44.2995 112.347 44.07L101.594 37.8197C101.188 37.5902 100.694 37.5902 100.287 37.8197L89.4642 44.07C89.0581 44.2995 88.8109 44.7409 88.8109 45.2V57.7006C88.8109 58.1773 89.0581 58.6011 89.4642 58.8306L100.217 64.9573C100.605 65.1869 101.1 65.1869 101.506 64.9573L108.003 61.3378C108.445 61.0906 108.445 60.455 108.003 60.2078L97.1094 53.9575C96.8975 53.8339 96.7739 53.622 96.7739 53.3925V49.4728C96.7739 49.2433 96.8975 49.0314 97.1094 48.9078L100.499 46.948C100.694 46.8244 100.958 46.8244 101.153 46.948L104.543 48.9078C104.737 49.0314 104.878 49.2433 104.878 49.4728V52.545C104.878 53.0394 105.425 53.3572 105.867 53.11L112.347 49.3492ZM98.6984 49.9672C98.6278 50.0202 98.5748 50.0908 98.5748 50.1791V52.5803C98.5748 52.6686 98.6278 52.7569 98.6984 52.7922L100.782 53.9928C100.853 54.0458 100.958 54.0458 101.029 53.9928L103.113 52.7922C103.183 52.7392 103.236 52.6686 103.236 52.5803V50.1791C103.236 50.0908 103.183 50.0025 103.113 49.9672L101.029 48.7666C100.958 48.7136 100.853 48.7136 100.782 48.7666L98.6984 49.9672ZM53.8162 57.6477V45.2177C53.8162 44.7586 53.5337 44.3172 53.1277 44.0877L42.3397 37.8727C41.9689 37.6608 41.4569 37.6255 41.0331 37.8727L30.2452 44.0877C29.8391 44.3172 29.5566 44.7409 29.5566 45.2177V57.6477C29.5566 58.142 29.892 58.5658 30.2628 58.7777L41.0684 64.9927C41.4922 65.2398 41.9866 65.2222 42.375 64.9927L53.1453 58.7777C53.4631 58.6011 53.6927 58.3009 53.7809 57.9478C53.7986 57.8595 53.8162 57.7536 53.8162 57.6477ZM40.6977 35.595L40.5564 35.6833H40.7506L40.6977 35.595ZM54.1517 58.5834L54.0811 58.4598V58.6187L54.1517 58.5834Z" fill="white"/>
</svg>