<svg xmlns="http://www.w3.org/2000/svg" width="80" height="80" viewBox="0 0 80 80" fill="none">
  <path d="M73.7189 31.3281C72.5157 26.5 70.2345 22.8594 65.3751 22.8594H59.1095V30.2656C59.1095 36.0156 54.2345 40.8594 48.672 40.8594H31.9845C27.422 40.8594 23.6407 44.7656 23.6407 49.3437V65.25C23.6407 69.7812 27.5782 72.4375 31.9845 73.7344C37.2657 75.2812 42.3439 75.5625 48.672 73.7344C52.8751 72.5156 57.0157 70.0625 57.0157 65.25V58.8906H40.3439V56.7656H65.3751C70.2345 56.7656 72.0314 53.375 73.7189 48.2969C75.4689 43.0625 75.3907 38.0312 73.7189 31.3281ZM49.7189 63.125C51.4532 63.125 52.8595 64.5469 52.8595 66.2969C52.8595 68.0625 51.4532 69.4844 49.7189 69.4844C48.0001 69.4844 46.5782 68.0469 46.5782 66.2969C46.5939 64.5312 48.0001 63.125 49.7189 63.125ZM31.2189 38.7656H47.9064C52.547 38.7656 56.2501 34.9375 56.2501 30.2812V14.3594C56.2501 9.82811 52.4376 6.43749 47.9064 5.67186C42.3126 4.74999 36.2345 4.79686 31.2189 5.68749C24.1564 6.93749 22.8751 9.54686 22.8751 14.375V20.7344H39.5782V22.8594H16.6095C11.7501 22.8594 7.50012 25.7812 6.17199 31.3281C4.64074 37.6875 4.57824 41.6562 6.17199 48.2969C7.35949 53.2344 10.1876 56.7656 15.047 56.7656H20.7814V49.1406C20.7814 43.625 25.547 38.7656 31.2189 38.7656ZM30.172 16.4844C28.4376 16.4844 27.0314 15.0625 27.0314 13.3125C27.047 11.5469 28.4376 10.125 30.172 10.125C31.8907 10.125 33.3126 11.5625 33.3126 13.3125C33.3126 15.0625 31.9064 16.4844 30.172 16.4844Z" fill="white"/>
</svg>