<svg width="80" height="80" viewBox="0 0 80 80" fill="none" xmlns="http://www.w3.org/2000/svg">
<path d="M74.9999 24.389C74.9999 23.6844 74.9874 22.9828 74.9687 22.2765C74.9499 20.7363 74.8152 19.1997 74.5656 17.6797C74.305 16.158 73.8195 14.6835 73.1249 13.3047C71.7147 10.5355 69.4632 8.28455 66.6937 6.87498C65.3153 6.17949 63.8407 5.69392 62.3187 5.43435C60.7983 5.18337 59.2611 5.04808 57.7203 5.02966C57.0156 5.01091 56.314 5.0031 55.6078 4.99841H24.3968C23.6921 4.99841 22.9906 5.01091 22.2843 5.02966C21.9015 5.0406 21.5171 5.0531 21.1328 5.07185C19.9772 5.11826 18.8258 5.23934 17.6859 5.43435C16.5503 5.63252 15.4392 5.95206 14.3718 6.38748C14.0114 6.53852 13.6567 6.70102 13.3078 6.87498C12.278 7.40206 11.3136 8.04814 10.4343 8.79998C10.1406 9.05154 9.85776 9.31248 9.58589 9.58123C8.49151 10.6728 7.57657 11.9305 6.87495 13.3078C6.18007 14.6865 5.69453 16.161 5.43433 17.6828C5.18697 19.2019 5.0543 20.7375 5.03745 22.2765C5.01714 22.9812 5.00933 23.6828 5.00464 24.389V55.6125C5.00464 56.3172 5.01714 57.0187 5.03745 57.7234C5.05608 59.2637 5.19083 60.8003 5.44058 62.3203C5.70044 63.8422 6.186 65.3168 6.8812 66.6953C8.29225 69.4622 10.5415 71.7126 13.3078 73.125C14.6865 73.8193 16.1611 74.3043 17.6828 74.564C19.2031 74.815 20.7404 74.9503 22.2812 74.9687C22.9843 74.9875 23.6875 74.9953 24.3937 75H55.6109C56.3156 75 57.0171 74.9875 57.7234 74.9687C59.2647 74.9494 60.8024 74.8142 62.3234 74.564C63.845 74.3041 65.3195 73.8191 66.6984 73.125C69.4655 71.713 71.715 69.4618 73.1249 66.6937C73.8202 65.3152 74.3057 63.8406 74.5656 62.3187C74.8166 60.7989 74.9519 59.2622 74.9703 57.7219C74.989 57.0187 74.9968 56.3156 75.0015 55.6109V26.8969C74.9999 26.0609 74.9999 25.225 74.9999 24.389ZM64.0812 62.0453C60.9562 55.9625 55.139 57.4719 52.1578 59.0031C51.889 59.1594 51.614 59.3156 51.3374 59.4719L51.2718 59.5109C45.0999 62.7922 36.814 63.0328 28.4828 59.4515C21.7008 56.5109 15.9662 51.5889 12.0312 45.3312C13.9456 46.7477 15.9958 47.9708 18.1515 48.9828C26.9578 53.1078 35.8078 52.8093 42.0578 48.9828C33.1515 42.1312 25.714 33.2015 20.0125 25.9797C18.9263 24.7125 17.9449 23.359 17.0781 21.9328C23.9062 28.1828 34.6874 36.0297 38.5593 38.2015C30.3453 29.5312 23.1078 18.8359 23.4468 19.1797C36.3828 32.214 48.3187 39.5844 48.3187 39.5844C48.7687 39.8312 49.0999 40.0297 49.3703 40.2094C49.6203 39.5715 49.8373 38.9211 50.0203 38.2609C52.0859 30.7093 49.7609 22.0765 44.5031 14.9484C56.5015 22.1484 63.5937 35.8344 60.6874 47.4094C60.6187 47.6797 60.539 47.9406 60.4624 48.2047C66.4812 55.6109 64.8437 63.5437 64.0765 62.0469L64.0812 62.0453Z" fill="url(#paint0_linear_116_238)"/>
<defs>
<linearGradient id="paint0_linear_116_238" x1="40.0031" y1="4.99841" x2="40.0031" y2="75" gradientUnits="userSpaceOnUse">
<stop stop-color="white"/>
<stop offset="1" stop-color="white" stop-opacity="0.19"/>
</linearGradient>
</defs>
</svg>
