<svg xmlns="http://www.w3.org/2000/svg" width="50" height="50" viewBox="0 0 50 50" fill="none">
  <path d="M0 12.5C0 10.8424 0.65848 9.25268 1.83058 8.08058C3.00269 6.90848 4.5924 6.25 6.25 6.25H43.75C45.4076 6.25 46.9973 6.90848 48.1694 8.08058C49.3415 9.25268 50 10.8424 50 12.5V37.5C50 39.1576 49.3415 40.7473 48.1694 41.9194C46.9973 43.0915 45.4076 43.75 43.75 43.75H6.25C4.5924 43.75 3.00269 43.0915 1.83058 41.9194C0.65848 40.7473 0 39.1576 0 37.5V12.5ZM6.25 9.375C5.4212 9.375 4.62634 9.70424 4.04029 10.2903C3.45424 10.8763 3.125 11.6712 3.125 12.5V13.1781L25 26.3031L46.875 13.1781V12.5C46.875 11.6712 46.5458 10.8763 45.9597 10.2903C45.3737 9.70424 44.5788 9.375 43.75 9.375H6.25ZM46.875 16.8219L32.1625 25.65L46.875 34.7031V16.8219ZM46.7687 38.3094L29.1438 27.4625L25 29.9469L20.8562 27.4625L3.23125 38.3063C3.40883 38.9712 3.80099 39.559 4.34684 39.9783C4.8927 40.3976 5.5617 40.6249 6.25 40.625H43.75C44.4379 40.6251 45.1066 40.3982 45.6524 39.9795C46.1982 39.5609 46.5906 38.9738 46.7687 38.3094ZM3.125 34.7031L17.8375 25.65L3.125 16.8219V34.7031Z" fill="white"/>
</svg>