<svg width="125" height="149" viewBox="0 0 125 149" fill="none" xmlns="http://www.w3.org/2000/svg">
<g clip-path="url(#clip0_196_52)">
<path d="M93.373 107.617H40.5897C32.8236 107.617 26.5069 101.27 26.5069 93.4659V89.7632C26.5069 82.6838 31.7131 76.8146 38.4769 75.7857L32.9101 64.3298C31.8141 62.069 31.9511 59.446 33.2779 57.3084C34.6047 55.1709 36.8905 53.9028 39.3927 53.9028H46.4304C41.9958 33.8025 48.1178 13.6659 62.7558 0C46.0843 0.615908 30.545 7.4706 18.7696 19.4772C6.42468 32.0562 -0.238145 48.7219 -0.000187312 66.4094C0.237771 83.8359 7.28998 100.176 19.8368 112.414C32.1458 124.421 48.2259 131 65.2075 131C65.5608 131 65.9069 131 66.2603 130.993C91.7434 130.587 114.876 114.928 125 91.6399C119.318 94.3861 113.268 96.1034 107.045 96.7918C105.552 102.994 99.9926 107.624 93.373 107.624V107.617ZM32.6722 22.3756L35.2536 20.3032C35.8738 19.8033 36.7823 19.9047 37.2799 20.5351C37.7774 21.1583 37.6765 22.0712 37.0491 22.5712L34.4677 24.6363C34.1432 24.8972 33.9557 25.216 33.9557 25.5421C33.9557 25.8681 34.136 26.1797 34.4677 26.4406L37.1212 28.5709C38.138 29.3824 38.7148 30.5418 38.7148 31.7374C38.7148 32.9402 38.1308 34.0923 37.1212 34.9039L34.8859 36.6936C34.6191 36.9038 34.3018 37.0124 33.9845 37.0124C33.5591 37.0124 33.1409 36.8241 32.8596 36.469C32.3621 35.8458 32.463 34.9329 33.0904 34.4329L35.3257 32.6431C35.6574 32.3823 35.8377 32.0634 35.8377 31.7446C35.8377 31.4258 35.6574 31.107 35.3257 30.8389L32.6722 28.7086C31.6554 27.897 31.0786 26.7449 31.0786 25.5421C31.0786 24.3392 31.6626 23.1871 32.6722 22.3756ZM26.1463 44.9323L28.3817 43.1425C28.7134 42.8817 28.8937 42.5629 28.8937 42.244C28.8937 41.9252 28.7134 41.6064 28.3817 41.3383L25.7281 39.208C24.7114 38.3964 24.1345 37.2443 24.1345 36.0415C24.1345 34.8387 24.7186 33.6865 25.7281 32.875L28.3096 30.8026C28.9297 30.3027 29.8383 30.4041 30.3358 31.0345C30.8334 31.6577 30.7324 32.5707 30.1051 33.0706L27.5236 35.1357C27.1991 35.3966 27.0116 35.7154 27.0116 36.0342C27.0116 36.3531 27.1919 36.6719 27.5236 36.94L30.1772 39.0703C31.1939 39.8819 31.7708 41.0412 31.7708 42.2368C31.7708 43.4324 31.1867 44.5917 30.1772 45.4033L27.9418 47.193C27.675 47.4032 27.3578 47.5119 27.0405 47.5119C26.615 47.5119 26.1968 47.3235 25.9156 46.9684C25.418 46.3453 25.519 45.4323 26.1463 44.9323Z" fill="white"/>
<path d="M51.7881 51.3087V53.9028H78.1005C80.8406 53.9028 83.3788 55.4969 84.583 57.975L93.1495 75.6117H93.3658C95.3632 75.6117 97.2597 76.0393 98.9759 76.7928V51.3087C98.9759 38.237 88.3903 27.5999 75.382 27.5999C62.3736 27.5999 51.7881 38.237 51.7881 51.3087ZM78.7927 40.3383C78.7927 39.5413 79.4417 38.8891 80.2349 38.8891C81.0281 38.8891 81.677 39.5413 81.677 40.3383V47.3017C81.677 48.0988 81.0281 48.7509 80.2349 48.7509C79.4417 48.7509 78.7927 48.0988 78.7927 47.3017V40.3383ZM62.7486 38.8891C63.5418 38.8891 64.1907 39.5413 64.1907 40.3383V44.2367L68.7264 42.215C69.4547 41.889 70.3055 42.215 70.63 42.9541C70.9545 43.686 70.63 44.541 69.8945 44.8671L60.7728 48.9393H69.3104C70.1036 48.9393 70.7526 49.5915 70.7526 50.3885C70.7526 51.1856 70.1036 51.8377 69.3104 51.8377H58.6528C57.4919 51.8377 56.5112 51.0406 56.2732 49.8958C56.0353 48.7509 56.6049 47.6278 57.6649 47.1496L61.2992 45.5265V40.3383C61.2992 39.5413 61.9482 38.8891 62.7414 38.8891H62.7486Z" fill="white"/>
<path d="M94.4113 78.5609C94.9089 80.4738 94.6276 82.5099 93.5604 84.2272C92.2336 86.3648 89.9478 87.6328 87.4456 87.6328H48.7378C45.9977 87.6328 43.4595 86.0387 42.2553 83.5606L39.818 78.5391C34.0061 78.9377 29.3911 83.8142 29.3911 89.7559V93.4586C29.3911 99.6611 34.4171 104.712 40.5896 104.712H93.3657C99.5382 104.712 104.564 99.6611 104.564 93.4586V89.7559C104.564 83.9084 100.093 79.0898 94.4113 78.5536V78.5609Z" fill="white"/>
<path d="M39.3999 56.8012C37.9001 56.8012 36.5228 57.562 35.7296 58.8446C34.9364 60.1271 34.8499 61.6995 35.5133 63.0545L44.8585 82.2926C45.5796 83.778 47.1083 84.7345 48.7452 84.7345H87.453C88.9529 84.7345 90.3301 83.9736 91.1233 82.6911C91.9165 81.4085 92.003 79.8362 91.3396 78.4812L81.9944 59.2431C81.2733 57.7577 79.7446 56.8012 78.1078 56.8012H39.3999ZM61.6526 68.8368L64.5009 65.1051C64.984 64.4675 65.8926 64.3515 66.5199 64.837C67.1545 65.3225 67.2699 66.2355 66.7867 66.8659L63.9384 70.5975C63.9384 70.5975 64.0178 70.8656 64.2918 71.083L69.0077 74.8872C69.6278 75.3871 69.7288 76.3001 69.2312 76.9233C68.9428 77.2783 68.5245 77.4667 68.1063 77.4667C67.789 77.4667 67.4718 77.3653 67.205 77.1479L62.4891 73.3438C61.0036 72.1482 60.6359 70.1628 61.6526 68.8295V68.8368ZM57.9174 73.0974L55.0114 76.9015C54.7302 77.2711 54.2975 77.4667 53.8649 77.4667C53.562 77.4667 53.252 77.3725 52.9852 77.1697C52.3506 76.6842 52.2352 75.7712 52.7184 75.1408L55.6243 71.3366C55.6243 71.3366 55.545 71.0685 55.271 70.8512L50.6416 67.1195C50.0215 66.6195 49.9206 65.7065 50.4181 65.0834C50.9157 64.4602 51.8242 64.3588 52.4444 64.8587L57.0737 68.5904C58.5592 69.7932 58.9269 71.7714 57.9102 73.1047L57.9174 73.0974Z" fill="white"/>
</g>
<g clip-path="url(#clip1_196_52)">
<path d="M93.373 154.383H40.5897C32.8236 154.383 26.5069 160.73 26.5069 168.534V172.237C26.5069 179.316 31.7131 185.185 38.4769 186.214L32.9101 197.67C31.8141 199.931 31.9511 202.554 33.2779 204.692C34.6047 206.829 36.8905 208.097 39.3927 208.097H46.4304C41.9958 228.198 48.1178 248.334 62.7558 262C46.0843 261.384 30.545 254.529 18.7696 242.523C6.42468 229.944 -0.238145 213.278 -0.000187312 195.591C0.237771 178.164 7.28998 161.824 19.8368 149.586C32.1458 137.579 48.2259 131 65.2075 131C65.5608 131 65.9069 131 66.2603 131.007C91.7434 131.413 114.876 147.072 125 170.36C119.318 167.614 113.268 165.897 107.045 165.208C105.552 159.006 99.9926 154.376 93.373 154.376V154.383ZM32.6722 239.624L35.2536 241.697C35.8738 242.197 36.7823 242.095 37.2799 241.465C37.7774 240.842 37.6765 239.929 37.0491 239.429L34.4677 237.364C34.1432 237.103 33.9557 236.784 33.9557 236.458C33.9557 236.132 34.136 235.82 34.4677 235.559L37.1212 233.429C38.138 232.618 38.7148 231.458 38.7148 230.263C38.7148 229.06 38.1308 227.908 37.1212 227.096L34.8859 225.306C34.6191 225.096 34.3018 224.988 33.9845 224.988C33.5591 224.988 33.1409 225.176 32.8596 225.531C32.3621 226.154 32.463 227.067 33.0904 227.567L35.3257 229.357C35.6574 229.618 35.8377 229.937 35.8377 230.255C35.8377 230.574 35.6574 230.893 35.3257 231.161L32.6722 233.291C31.6554 234.103 31.0786 235.255 31.0786 236.458C31.0786 237.661 31.6626 238.813 32.6722 239.624ZM26.1463 217.068L28.3817 218.857C28.7134 219.118 28.8937 219.437 28.8937 219.756C28.8937 220.075 28.7134 220.394 28.3817 220.662L25.7281 222.792C24.7114 223.604 24.1345 224.756 24.1345 225.959C24.1345 227.161 24.7186 228.313 25.7281 229.125L28.3096 231.197C28.9297 231.697 29.8383 231.596 30.3358 230.965C30.8334 230.342 30.7324 229.429 30.1051 228.929L27.5236 226.864C27.1991 226.603 27.0116 226.285 27.0116 225.966C27.0116 225.647 27.1919 225.328 27.5236 225.06L30.1772 222.93C31.1939 222.118 31.7708 220.959 31.7708 219.763C31.7708 218.568 31.1867 217.408 30.1772 216.597L27.9418 214.807C27.675 214.597 27.3578 214.488 27.0405 214.488C26.615 214.488 26.1968 214.677 25.9156 215.032C25.418 215.655 25.519 216.568 26.1463 217.068Z" fill="url(#paint0_linear_196_52)"/>
</g>
<defs>
<linearGradient id="paint0_linear_196_52" x1="62.4967" y1="262" x2="62.4967" y2="131" gradientUnits="userSpaceOnUse">
<stop offset="0.895" stop-color="white" stop-opacity="0"/>
<stop offset="1" stop-color="white"/>
</linearGradient>
<clipPath id="clip0_196_52">
<rect width="125" height="131" fill="white"/>
</clipPath>
<clipPath id="clip1_196_52">
<rect width="125" height="18" fill="white" transform="matrix(1 0 0 -1 0 149)"/>
</clipPath>
</defs>
</svg>
