<svg width="125" height="130" viewBox="0 0 125 130" fill="none" xmlns="http://www.w3.org/2000/svg">
<g clip-path="url(#clip0_31_1515)">
<path d="M93.2851 106.796H40.5516C32.7929 106.796 26.4821 100.497 26.4821 92.7524V89.0779C26.4821 82.0527 31.6834 76.2282 38.4408 75.2071L32.8793 63.8387C31.7843 61.5952 31.9212 58.9922 33.2467 56.871C34.5723 54.7497 36.8559 53.4913 39.3557 53.4913H46.3869C41.9564 33.5444 48.0726 13.5616 62.6968 0C46.0411 0.611206 30.5164 7.41357 18.7522 19.3285C6.4189 31.8115 -0.237621 48.35 0.000112043 65.9024C0.237845 83.196 7.28339 99.4109 19.8184 111.556C32.1157 123.471 48.1807 130 65.1462 130C65.4992 130 65.845 130 66.198 129.993C91.657 129.59 114.768 114.051 124.882 90.9403C119.205 93.6656 113.161 95.3698 106.944 96.0529C105.453 102.208 99.8984 106.803 93.2851 106.803V106.796ZM32.6416 22.2048L35.2206 20.1482C35.8402 19.6521 36.7479 19.7528 37.245 20.3783C37.742 20.9967 37.6412 21.9028 37.0144 22.3989L34.4354 24.4483C34.1112 24.7071 33.9239 25.0235 33.9239 25.3471C33.9239 25.6707 34.104 25.9799 34.4354 26.2387L37.0865 28.3528C38.1022 29.1581 38.6786 30.3086 38.6786 31.4951C38.6786 32.6888 38.095 33.8321 37.0865 34.6374L34.8532 36.4135C34.5867 36.622 34.2697 36.7299 33.9527 36.7299C33.5277 36.7299 33.1098 36.543 32.8289 36.1906C32.3318 35.5722 32.4327 34.6662 33.0594 34.17L35.2927 32.3939C35.6241 32.1351 35.8041 31.8187 35.8041 31.5023C35.8041 31.1859 35.6241 30.8695 35.2927 30.6035L32.6416 28.4894C31.6258 27.6841 31.0495 26.5407 31.0495 25.3471C31.0495 24.1534 31.633 23.0101 32.6416 22.2048ZM26.1219 44.5893L28.3552 42.8132C28.6866 42.5543 28.8667 42.238 28.8667 41.9216C28.8667 41.6052 28.6866 41.2888 28.3552 41.0227L25.7041 38.9087C24.6883 38.1033 24.112 36.96 24.112 35.7664C24.112 34.5727 24.6955 33.4294 25.7041 32.624L28.2831 30.5675C28.9027 30.0714 29.8104 30.172 30.3075 30.7976C30.8046 31.416 30.7037 32.322 30.0769 32.8182L27.4979 34.8675C27.1737 35.1264 26.9864 35.4428 26.9864 35.7592C26.9864 36.0756 27.1665 36.3919 27.4979 36.658L30.149 38.7721C31.1648 39.5774 31.7411 40.7279 31.7411 41.9144C31.7411 43.1008 31.1575 44.2513 30.149 45.0567L27.9157 46.8328C27.6492 47.0413 27.3322 47.1492 27.0152 47.1492C26.5902 47.1492 26.1724 46.9622 25.8914 46.6099C25.3943 45.9915 25.4952 45.0855 26.1219 44.5893Z" fill="url(#paint0_angular_31_1515)"/>
<path d="M51.7393 50.9171V53.4913H78.0268C80.7644 53.4913 83.3002 55.0733 84.5033 57.5325L93.0616 75.0346H93.2778C95.2733 75.0346 97.1679 75.4588 98.8825 76.2066V50.9171C98.8825 37.9451 88.307 27.3892 75.3109 27.3892C62.3148 27.3892 51.7393 37.9451 51.7393 50.9171ZM78.7184 40.0304C78.7184 39.2394 79.3668 38.5923 80.1592 38.5923C80.9517 38.5923 81.6 39.2394 81.6 40.0304V46.9406C81.6 47.7316 80.9517 48.3788 80.1592 48.3788C79.3668 48.3788 78.7184 47.7316 78.7184 46.9406V40.0304ZM62.6894 38.5923C63.4819 38.5923 64.1303 39.2394 64.1303 40.0304V43.899L68.6616 41.8928C69.3892 41.5692 70.2393 41.8928 70.5635 42.6262C70.8876 43.3525 70.5635 44.201 69.8286 44.5246L60.7155 48.5657H69.2451C70.0376 48.5657 70.6859 49.2129 70.6859 50.0039C70.6859 50.7948 70.0376 51.442 69.2451 51.442H58.5976C57.4377 51.442 56.458 50.651 56.2202 49.5149C55.9825 48.3788 56.5516 47.2642 57.6106 46.7896L61.2414 45.1789V40.0304C61.2414 39.2394 61.8898 38.5923 62.6822 38.5923H62.6894Z" fill="url(#paint1_angular_31_1515)"/>
<path d="M94.3223 77.9612C94.8194 79.8595 94.5385 81.8801 93.4723 83.5843C92.1467 85.7055 89.863 86.9639 87.3632 86.9639H48.692C45.9545 86.9639 43.4187 85.3819 42.2156 82.9227L39.7806 77.9396C33.9742 78.3351 29.3636 83.1744 29.3636 89.0708V92.7452C29.3636 98.9004 34.3848 103.912 40.5514 103.912H93.2778C99.4444 103.912 104.466 98.9004 104.466 92.7452V89.0708C104.466 83.2679 99.9991 78.4861 94.3223 77.954V77.9612Z" fill="url(#paint2_angular_31_1515)"/>
<path d="M39.3628 56.3676C37.8643 56.3676 36.4884 57.1226 35.6959 58.3954C34.9035 59.6681 34.817 61.2285 35.4798 62.5732L44.8162 81.6644C45.5366 83.1385 47.0639 84.0876 48.6992 84.0876H87.3704C88.8689 84.0876 90.2448 83.3326 91.0373 82.0599C91.8297 80.7871 91.9162 79.2267 91.2534 77.8821L81.917 58.7909C81.1966 57.3168 79.6693 56.3676 78.034 56.3676H39.3628ZM61.5944 68.3113L64.44 64.6081C64.9227 63.9753 65.8304 63.8603 66.4571 64.3421C67.0911 64.8238 67.2063 65.7299 66.7237 66.3554L63.8781 70.0586C63.8781 70.0586 63.9573 70.3247 64.2311 70.5404L68.9425 74.3155C69.5621 74.8117 69.6629 75.7177 69.1658 76.3361C68.8777 76.6884 68.4598 76.8754 68.042 76.8754C67.725 76.8754 67.4081 76.7747 67.1415 76.559L62.4301 72.7839C60.946 71.5974 60.5786 69.6272 61.5944 68.3041V68.3113ZM57.8627 72.5394L54.9595 76.3145C54.6785 76.6812 54.2463 76.8754 53.814 76.8754C53.5115 76.8754 53.2017 76.7819 52.9352 76.5806C52.3012 76.0988 52.1859 75.1928 52.6686 74.5672L55.5718 70.7921C55.5718 70.7921 55.4926 70.526 55.2188 70.3103L50.5939 66.6071C49.9743 66.111 49.8734 65.2049 50.3705 64.5865C50.8676 63.9681 51.7753 63.8675 52.3949 64.3636L57.0198 68.0668C58.5039 69.2605 58.8713 71.2235 57.8555 72.5466L57.8627 72.5394Z" fill="url(#paint3_angular_31_1515)"/>
</g>
<defs>
<radialGradient id="paint0_angular_31_1515" cx="0" cy="0" r="1" gradientUnits="userSpaceOnUse" gradientTransform="translate(62.438 65) rotate(90) scale(65 62.444)">
<stop offset="0.145" stop-color="#5F2CEF"/>
<stop offset="0.28" stop-color="#2B0759"/>
<stop offset="0.465" stop-color="#A55FFE"/>
<stop offset="0.67" stop-color="#071238"/>
<stop offset="0.815" stop-color="#3B72FE"/>
<stop offset="1" stop-color="#150224"/>
</radialGradient>
<radialGradient id="paint1_angular_31_1515" cx="0" cy="0" r="1" gradientUnits="userSpaceOnUse" gradientTransform="translate(75.3109 51.7979) rotate(90) scale(24.4087 23.5716)">
<stop offset="0.145" stop-color="#5F2CEF"/>
<stop offset="0.28" stop-color="#2B0759"/>
<stop offset="0.465" stop-color="#A55FFE"/>
<stop offset="0.67" stop-color="#071238"/>
<stop offset="0.815" stop-color="#3B72FE"/>
<stop offset="1" stop-color="#150224"/>
</radialGradient>
<radialGradient id="paint2_angular_31_1515" cx="0" cy="0" r="1" gradientUnits="userSpaceOnUse" gradientTransform="translate(66.9146 90.9259) rotate(90) scale(12.9863 37.551)">
<stop offset="0.145" stop-color="#5F2CEF"/>
<stop offset="0.28" stop-color="#2B0759"/>
<stop offset="0.465" stop-color="#A55FFE"/>
<stop offset="0.67" stop-color="#071238"/>
<stop offset="0.815" stop-color="#3B72FE"/>
<stop offset="1" stop-color="#150224"/>
</radialGradient>
<radialGradient id="paint3_angular_31_1515" cx="0" cy="0" r="1" gradientUnits="userSpaceOnUse" gradientTransform="translate(63.3666 70.2276) rotate(90) scale(13.86 28.3303)">
<stop offset="0.145" stop-color="#5F2CEF"/>
<stop offset="0.28" stop-color="#2B0759"/>
<stop offset="0.465" stop-color="#A55FFE"/>
<stop offset="0.67" stop-color="#071238"/>
<stop offset="0.815" stop-color="#3B72FE"/>
<stop offset="1" stop-color="#150224"/>
</radialGradient>
<clipPath id="clip0_31_1515">
<rect width="124.882" height="130" fill="white"/>
</clipPath>
</defs>
</svg>
