<svg xmlns="http://www.w3.org/2000/svg" width="70" height="70" viewBox="0 0 53 60" fill="none">
                                        <path d="M30 0H37.425C37.965 2.68125 39.45 6.06375 42.0563 9.42C44.6063 12.7087 47.9888 15 52.5 15V22.5C45.9263 22.5 40.9875 19.4475 37.5 15.6412V41.25C37.5 44.9584 36.4003 48.5835 34.3401 51.6669C32.2798 54.7504 29.3514 57.1536 25.9253 58.5727C22.4992 59.9919 18.7292 60.3632 15.0921 59.6397C11.4549 58.9162 8.11399 57.1305 5.49176 54.5082C2.86952 51.886 1.08376 48.5451 0.360284 44.9079C-0.363188 41.2708 0.00812407 37.5008 1.42727 34.0747C2.84641 30.6486 5.24964 27.7202 8.33307 25.6599C11.4165 23.5997 15.0416 22.5 18.75 22.5V30C16.525 30 14.3499 30.6598 12.4998 31.896C10.6498 33.1321 9.20785 34.8891 8.35636 36.9448C7.50488 39.0005 7.28209 41.2625 7.71617 43.4448C8.15026 45.627 9.22171 47.6316 10.7951 49.2049C12.3684 50.7783 14.373 51.8497 16.5552 52.2838C18.7375 52.7179 20.9995 52.4951 23.0552 51.6436C25.1109 50.7922 26.8679 49.3502 28.104 47.5002C29.3402 45.6501 30 43.475 30 41.25V0Z" fill="white" />
                                    </svg>