<svg xmlns="http://www.w3.org/2000/svg" width="96" height="96" viewBox="0 0 96 96" fill="none">
  <path d="M87.8427 31.234C90.7497 40.2812 90.718 50.0164 87.7522 59.0445C84.7864 68.0726 79.0387 75.93 71.3329 81.4908C63.627 87.0516 54.3586 90.0302 44.8559 89.9998C35.3532 89.9693 26.1041 86.9314 18.434 81.3214C10.7639 75.7114 5.06666 67.8173 2.15873 58.7704C-0.74921 49.7236 -0.718545 39.9883 2.24633 30.9599C5.2112 21.9316 10.9581 14.0735 18.6633 8.51192C26.3686 2.95035 35.6367 -0.0292254 45.1394 0.000215973L45.0991 12.9983C38.3413 12.9774 31.7502 15.0963 26.2706 19.0514C20.791 23.0065 16.7041 28.5948 14.5956 35.0154C12.4872 41.4359 12.4653 48.3592 14.5333 54.7929C16.6013 61.2266 20.6529 66.8405 26.1075 70.8301C31.5621 74.8196 38.1397 76.9801 44.8975 77.0017C51.6554 77.0233 58.2467 74.9051 63.7267 70.9505C69.2067 66.996 73.2942 61.4081 75.4033 54.9878C77.5125 48.5674 77.535 41.6442 75.4677 35.2103L87.8427 31.234Z" fill="white"/>
</svg>