<svg xmlns="http://www.w3.org/2000/svg" width="96" height="96" viewBox="0 0 96 96" fill="none">
  <path d="M76.8198 13.1802C84.1815 20.5419 88.7629 30.2284 89.7833 40.5892C90.8038 50.9501 88.2002 61.3442 82.4161 70.0007C76.6321 78.6571 68.0255 85.0402 58.0628 88.0623C48.1001 91.0845 37.3978 90.5587 27.7793 86.5746C18.1608 82.5905 10.2213 75.3945 5.31355 66.2129C0.40584 57.0312 -1.16642 46.4319 0.86466 36.2209C2.89574 26.01 8.40449 16.8192 16.4523 10.2145C24.5001 3.60987 34.589 3.01988e-06 45 0L45 12.9981C37.5962 12.9981 30.4214 15.5653 24.6982 20.2622C18.975 24.9592 15.0575 31.4952 13.6131 38.7568C12.1686 46.0183 13.2868 53.556 16.7769 60.0856C20.267 66.6151 25.9132 71.7326 32.7534 74.5659C39.5936 77.3992 47.2047 77.7731 54.2897 75.6239C61.3746 73.4747 67.4952 68.9353 71.6086 62.7793C75.7219 56.6232 77.5735 49.2314 76.8478 41.8633C76.1221 34.4951 72.864 27.6065 67.6287 22.3713L76.8198 13.1802Z" fill="white"/>
</svg>