<svg xmlns="http://www.w3.org/2000/svg" width="86" height="86" viewBox="0 0 96 96" fill="none">
  <path d="M66.0151 5.20847C75.7545 10.3521 83.2692 18.8891 87.1358 29.2022C91.0025 39.5154 90.9526 50.8885 86.9955 61.1673C83.0384 71.4461 75.449 79.9167 65.6648 84.9746C55.8806 90.0325 44.5812 91.3264 33.907 88.6113C23.2327 85.8962 13.9248 79.3605 7.74652 70.2424C1.56821 61.1243 -1.0515 50.0568 0.383635 39.1366C1.81877 28.2163 7.20907 18.2015 15.5335 10.9893C23.8579 3.77712 34.5384 -0.13166 45.5517 0.00338249L45.3924 13.0006C37.5602 12.9045 29.9648 15.6843 24.0448 20.8132C18.1249 25.9422 14.2916 33.0642 13.271 40.8302C12.2504 48.5962 14.1134 56.4668 18.5071 62.9512C22.9008 69.4356 29.5201 74.0834 37.1112 76.0143C44.7022 77.9451 52.7378 77.0249 59.6958 73.428C66.6538 69.8311 72.0511 63.8072 74.8652 56.4974C77.6793 49.1876 77.7148 41.0996 74.965 33.7654C72.2152 26.4311 66.8711 20.3601 59.9449 16.7022L66.0151 5.20847Z" fill="white"/>
</svg>